<?xml version="1.0" encoding="UTF-8" standalone="no"?><!DOCTYPE svg PUBLIC "-//W3C//DTD SVG 1.1//EN" "http://www.w3.org/Graphics/SVG/1.1/DTD/svg11.dtd"><!-- Generated by graphviz version 2.40.1 (20161225.0304)
 --><!-- Title: G Pages: 1 --><svg xmlns="http://www.w3.org/2000/svg" xmlns:xlink="http://www.w3.org/1999/xlink" width="1001pt" height="310pt" viewBox="0.00 0.00 1001.28 310.40">
<g id="graph0" class="graph" transform="scale(1 1) rotate(0) translate(4 306.4)">
<title>G</title>
<polygon fill="#ffffff" stroke="transparent" points="-4,4 -4,-306.4 997.2811,-306.4 997.2811,4 -4,4"/>
<!-- Ciudad -->
<g id="node1" class="node">
<title>Ciudad</title>
<ellipse fill="none" stroke="#000000" cx="712.4452" cy="-106.8" rx="38.8652" ry="18"/>
<text text-anchor="middle" x="712.4452" y="-102.6" font-family="Times,serif" font-size="14.00" fill="#000000">Ciudad</text>
</g>
<!-- Asentamiento -->
<g id="node2" class="node">
<title>Asentamiento</title>
<ellipse fill="none" stroke="#000000" cx="657.4452" cy="-18" rx="64.8447" ry="18"/>
<text text-anchor="middle" x="657.4452" y="-13.8" font-family="Times,serif" font-size="14.00" fill="#000000">Asentamiento</text>
</g>
<!-- Ciudad&#45;&gt;Asentamiento -->
<g id="edge1" class="edge">
<title>Ciudad-&gt;Asentamiento</title>
<path fill="none" stroke="#000000" d="M701.579,-89.256C693.6459,-76.4476 682.7545,-58.8629 673.7765,-44.3675"/>
<polygon fill="#000000" stroke="#000000" points="676.7182,-42.47 668.4772,-35.8115 670.7672,-46.1559 676.7182,-42.47"/>
<text text-anchor="middle" x="712.3821" y="-58.2" font-family="Times,serif" font-size="14.00" fill="#000000">subc_de</text>
</g>
<!-- alta -->
<g id="node4" class="node">
<title>alta</title>
<ellipse fill="none" stroke="#000000" cx="767.4452" cy="-18" rx="27" ry="18"/>
<text text-anchor="middle" x="767.4452" y="-13.8" font-family="Times,serif" font-size="14.00" fill="#000000">alta</text>
</g>
<!-- Ciudad&#45;&gt;alta -->
<g id="edge3" class="edge">
<title>Ciudad-&gt;alta</title>
<path fill="none" stroke="#000000" d="M726.1924,-89.6112C730.6245,-83.7778 735.4262,-77.1322 739.4452,-70.8 744.697,-62.5256 749.8851,-53.1694 754.3415,-44.656"/>
<polygon fill="#000000" stroke="#000000" points="757.5848,-46.0012 759.0264,-35.5049 751.3539,-42.8112 757.5848,-46.0012"/>
<text text-anchor="middle" x="801.3239" y="-58.2" font-family="Times,serif" font-size="14.00" fill="#000000">densidadPoblacion</text>
</g>
<!-- CiudadAustraliana -->
<g id="node3" class="node">
<title>CiudadAustraliana</title>
<ellipse fill="none" stroke="#000000" cx="624.4452" cy="-195.6" rx="83.3847" ry="18"/>
<text text-anchor="middle" x="624.4452" y="-191.4" font-family="Times,serif" font-size="14.00" fill="#000000">CiudadAustraliana</text>
</g>
<!-- CiudadAustraliana&#45;&gt;Ciudad -->
<g id="edge2" class="edge">
<title>CiudadAustraliana-&gt;Ciudad</title>
<path fill="none" stroke="#000000" d="M642.2534,-177.63C655.6824,-164.0789 674.2291,-145.3635 688.8855,-130.5739"/>
<polygon fill="#000000" stroke="#000000" points="691.5946,-132.8125 696.1476,-123.2458 686.6225,-127.8852 691.5946,-132.8125"/>
<text text-anchor="middle" x="698.3821" y="-147" font-family="Times,serif" font-size="14.00" fill="#000000">subc_de</text>
</g>
<!-- costa -->
<g id="node5" class="node">
<title>costa</title>
<ellipse fill="none" stroke="#000000" cx="624.4452" cy="-106.8" rx="30.7558" ry="18"/>
<text text-anchor="middle" x="624.4452" y="-102.6" font-family="Times,serif" font-size="14.00" fill="#000000">costa</text>
</g>
<!-- CiudadAustraliana&#45;&gt;costa -->
<g id="edge4" class="edge">
<title>CiudadAustraliana-&gt;costa</title>
<path fill="none" stroke="#000000" d="M624.4452,-177.2006C624.4452,-165.0949 624.4452,-149.0076 624.4452,-135.2674"/>
<polygon fill="#000000" stroke="#000000" points="627.9453,-134.872 624.4452,-124.872 620.9453,-134.8721 627.9453,-134.872"/>
<text text-anchor="middle" x="638.0504" y="-147" font-family="Times,serif" font-size="14.00" fill="#000000">tiene</text>
</g>
<!-- sidney -->
<g id="node6" class="node">
<title>sidney</title>
<ellipse fill="none" stroke="#000000" cx="416.4452" cy="-284.4" rx="36.4975" ry="18"/>
<text text-anchor="middle" x="416.4452" y="-280.2" font-family="Times,serif" font-size="14.00" fill="#000000">sidney</text>
</g>
<!-- sidney&#45;&gt;CiudadAustraliana -->
<g id="edge5" class="edge">
<title>sidney-&gt;CiudadAustraliana</title>
<path fill="none" stroke="#000000" d="M444.066,-272.608C478.0008,-258.1205 536.1156,-233.31 577.1987,-215.7706"/>
<polygon fill="#000000" stroke="#000000" points="578.647,-218.958 586.4697,-211.8126 575.8985,-212.5202 578.647,-218.958"/>
<text text-anchor="middle" x="558.6654" y="-235.8" font-family="Times,serif" font-size="14.00" fill="#000000">inst_de</text>
</g>
<!-- 5297089 -->
<g id="node10" class="node">
<title>5297089</title>
<ellipse fill="none" stroke="#000000" cx="209.4452" cy="-195.6" rx="44.6722" ry="18"/>
<text text-anchor="middle" x="209.4452" y="-191.4" font-family="Times,serif" font-size="14.00" fill="#000000">5297089</text>
</g>
<!-- sidney&#45;&gt;5297089 -->
<g id="edge9" class="edge">
<title>sidney-&gt;5297089</title>
<path fill="none" stroke="#000000" d="M385.4599,-274.9709C364.501,-268.2841 336.3516,-258.6981 312.2348,-248.4 289.1395,-238.538 264.0539,-225.6965 244.4464,-215.1471"/>
<polygon fill="#000000" stroke="#000000" points="246.0306,-212.0247 235.5724,-210.3284 242.6902,-218.1763 246.0306,-212.0247"/>
<text text-anchor="middle" x="339.0504" y="-235.8" font-family="Times,serif" font-size="14.00" fill="#000000">poblacion</text>
</g>
<!-- _ -->
<g id="node12" class="node">
<title>_</title>
<ellipse fill="none" stroke="#000000" cx="496.4452" cy="-195.6" rx="27" ry="18"/>
<text text-anchor="middle" x="496.4452" y="-191.4" font-family="Times,serif" font-size="14.00" fill="#000000">_</text>
</g>
<!-- sidney&#45;&gt;_ -->
<g id="edge11" class="edge">
<title>sidney-&gt;_</title>
<path fill="none" stroke="#000000" d="M444.3695,-272.6324C455.5924,-266.7411 467.8754,-258.6526 476.4452,-248.4 482.4096,-241.2645 486.7,-232.166 489.7381,-223.5394"/>
<polygon fill="#000000" stroke="#000000" points="493.1469,-224.3629 492.7546,-213.7753 486.4588,-222.2966 493.1469,-224.3629"/>
</g>
<!-- joanSutherland -->
<g id="node16" class="node">
<title>joanSutherland</title>
<ellipse fill="none" stroke="#000000" cx="341.4452" cy="-195.6" rx="69.5032" ry="18"/>
<text text-anchor="middle" x="341.4452" y="-191.4" font-family="Times,serif" font-size="14.00" fill="#000000">joanSutherland</text>
</g>
<!-- sidney&#45;&gt;joanSutherland -->
<g id="edge18" class="edge">
<title>sidney-&gt;joanSutherland</title>
<path fill="none" stroke="#000000" d="M402.3383,-267.6974C391.3111,-254.6411 375.7904,-236.2646 363.1786,-221.3323"/>
<polygon fill="#000000" stroke="#000000" points="365.6447,-218.8279 356.5183,-213.4465 360.2969,-223.3447 365.6447,-218.8279"/>
<text text-anchor="middle" x="429.3786" y="-235.8" font-family="Times,serif" font-size="14.00" fill="#000000">tieneCiudadano</text>
</g>
<!-- perth -->
<g id="node7" class="node">
<title>perth</title>
<ellipse fill="none" stroke="#000000" cx="886.4452" cy="-284.4" rx="30.7577" ry="18"/>
<text text-anchor="middle" x="886.4452" y="-280.2" font-family="Times,serif" font-size="14.00" fill="#000000">perth</text>
</g>
<!-- perth&#45;&gt;CiudadAustraliana -->
<g id="edge6" class="edge">
<title>perth-&gt;CiudadAustraliana</title>
<path fill="none" stroke="#000000" d="M865.1356,-271.1513C845.1964,-259.2731 814.2457,-242.1404 785.4452,-231.6 768.9822,-225.5748 731.4492,-217.0801 696.7615,-209.8554"/>
<polygon fill="#000000" stroke="#000000" points="697.0965,-206.3508 686.5954,-207.7566 695.6812,-213.2062 697.0965,-206.3508"/>
<text text-anchor="middle" x="842.6654" y="-235.8" font-family="Times,serif" font-size="14.00" fill="#000000">inst_de</text>
</g>
<!-- 2192229 -->
<g id="node11" class="node">
<title>2192229</title>
<ellipse fill="none" stroke="#000000" cx="948.4452" cy="-195.6" rx="44.6722" ry="18"/>
<text text-anchor="middle" x="948.4452" y="-191.4" font-family="Times,serif" font-size="14.00" fill="#000000">2192229</text>
</g>
<!-- perth&#45;&gt;2192229 -->
<g id="edge10" class="edge">
<title>perth-&gt;2192229</title>
<path fill="none" stroke="#000000" d="M898.107,-267.6974C907.1971,-254.678 919.9808,-236.3684 930.3906,-221.4589"/>
<polygon fill="#000000" stroke="#000000" points="933.3445,-223.342 936.1995,-213.1391 927.605,-219.3347 933.3445,-223.342"/>
<text text-anchor="middle" x="950.0504" y="-235.8" font-family="Times,serif" font-size="14.00" fill="#000000">poblacion</text>
</g>
<!-- _2 -->
<g id="node14" class="node">
<title>_2</title>
<ellipse fill="none" stroke="#000000" cx="858.4452" cy="-195.6" rx="27" ry="18"/>
<text text-anchor="middle" x="858.4452" y="-191.4" font-family="Times,serif" font-size="14.00" fill="#000000">_2</text>
</g>
<!-- perth&#45;&gt;_2 -->
<g id="edge14" class="edge">
<title>perth-&gt;_2</title>
<path fill="none" stroke="#000000" d="M882.1455,-266.1704C879.5971,-255.9293 876.1477,-242.961 872.4452,-231.6 871.479,-228.6352 870.4019,-225.5597 869.2861,-222.5115"/>
<polygon fill="#000000" stroke="#000000" points="872.5076,-221.1362 865.678,-213.0364 865.9659,-223.6274 872.5076,-221.1362"/>
</g>
<!-- canberra -->
<g id="node8" class="node">
<title>canberra</title>
<ellipse fill="none" stroke="#000000" cx="669.4452" cy="-284.4" rx="44.041" ry="18"/>
<text text-anchor="middle" x="669.4452" y="-280.2" font-family="Times,serif" font-size="14.00" fill="#000000">canberra</text>
</g>
<!-- canberra&#45;&gt;CiudadAustraliana -->
<g id="edge7" class="edge">
<title>canberra-&gt;CiudadAustraliana</title>
<path fill="none" stroke="#000000" d="M660.3388,-266.43C653.9954,-253.9123 645.4188,-236.9879 638.2401,-222.8218"/>
<polygon fill="#000000" stroke="#000000" points="641.1805,-220.8812 633.5381,-213.5433 634.9364,-224.0454 641.1805,-220.8812"/>
<text text-anchor="middle" x="670.6654" y="-235.8" font-family="Times,serif" font-size="14.00" fill="#000000">inst_de</text>
</g>
<!-- australia -->
<g id="node9" class="node">
<title>australia</title>
<ellipse fill="none" stroke="#000000" cx="769.4452" cy="-195.6" rx="43.9944" ry="18"/>
<text text-anchor="middle" x="769.4452" y="-191.4" font-family="Times,serif" font-size="14.00" fill="#000000">australia</text>
</g>
<!-- canberra&#45;&gt;australia -->
<g id="edge8" class="edge">
<title>canberra-&gt;australia</title>
<path fill="none" stroke="#000000" d="M688.2545,-267.6974C703.7584,-253.9299 725.9241,-234.2468 743.1794,-218.9241"/>
<polygon fill="#000000" stroke="#000000" points="745.5669,-221.4848 750.7204,-212.2277 740.9189,-216.2506 745.5669,-221.4848"/>
<text text-anchor="middle" x="754.2636" y="-235.8" font-family="Times,serif" font-size="14.00" fill="#000000">capitalDe</text>
</g>
<!-- canberra&#45;&gt;_ -->
<g id="edge12" class="edge">
<title>canberra-&gt;_</title>
<path fill="none" stroke="#000000" d="M645.2785,-269.0167C627.2506,-257.88 601.8071,-242.8669 578.4452,-231.6 558.6709,-222.0633 552.5062,-222.5182 532.4452,-213.6 530.6734,-212.8123 528.8626,-211.9839 527.0422,-211.1328"/>
<polygon fill="#000000" stroke="#000000" points="528.5235,-207.9614 517.9955,-206.7724 525.4841,-214.2672 528.5235,-207.9614"/>
</g>
<!-- canberra&#45;&gt;_2 -->
<g id="edge15" class="edge">
<title>canberra-&gt;_2</title>
<path fill="none" stroke="#000000" d="M708.1655,-275.5546C731.0444,-269.5362 760.1879,-260.4654 784.4452,-248.4 794.2816,-243.5075 815.3045,-228.321 832.4379,-215.4837"/>
<polygon fill="#000000" stroke="#000000" points="834.5938,-218.2416 840.4704,-209.4259 830.3789,-212.6528 834.5938,-218.2416"/>
</g>
<!-- 246.91 -->
<g id="node13" class="node">
<title>246.91</title>
<ellipse fill="none" stroke="#000000" cx="530.4452" cy="-106.8" rx="37.6864" ry="18"/>
<text text-anchor="middle" x="530.4452" y="-102.6" font-family="Times,serif" font-size="14.00" fill="#000000">246.91</text>
</g>
<!-- _&#45;&gt;246.91 -->
<g id="edge13" class="edge">
<title>_-&gt;246.91</title>
<path fill="none" stroke="#000000" d="M503.1626,-178.056C507.9741,-165.4892 514.5461,-148.3248 520.0342,-133.9912"/>
<polygon fill="#000000" stroke="#000000" points="523.3184,-135.2019 523.6255,-124.6115 516.7812,-132.6989 523.3184,-135.2019"/>
<text text-anchor="middle" x="551.8239" y="-147" font-family="Times,serif" font-size="14.00" fill="#000000">distanciaKm</text>
</g>
<!-- 3088 -->
<g id="node15" class="node">
<title>3088</title>
<ellipse fill="none" stroke="#000000" cx="858.4452" cy="-106.8" rx="30.2015" ry="18"/>
<text text-anchor="middle" x="858.4452" y="-102.6" font-family="Times,serif" font-size="14.00" fill="#000000">3088</text>
</g>
<!-- _2&#45;&gt;3088 -->
<g id="edge16" class="edge">
<title>_2-&gt;3088</title>
<path fill="none" stroke="#000000" d="M858.4452,-177.2006C858.4452,-165.0949 858.4452,-149.0076 858.4452,-135.2674"/>
<polygon fill="#000000" stroke="#000000" points="861.9453,-134.872 858.4452,-124.872 854.9453,-134.8721 861.9453,-134.872"/>
<text text-anchor="middle" x="893.8239" y="-147" font-family="Times,serif" font-size="14.00" fill="#000000">distanciaKm</text>
</g>
<!-- CiudadanoNotable -->
<g id="node17" class="node">
<title>CiudadanoNotable</title>
<ellipse fill="none" stroke="#000000" cx="83.4452" cy="-106.8" rx="83.3905" ry="18"/>
<text text-anchor="middle" x="83.4452" y="-102.6" font-family="Times,serif" font-size="14.00" fill="#000000">CiudadanoNotable</text>
</g>
<!-- joanSutherland&#45;&gt;CiudadanoNotable -->
<g id="edge17" class="edge">
<title>joanSutherland-&gt;CiudadanoNotable</title>
<path fill="none" stroke="#000000" d="M288.6557,-183.8247C262.8468,-177.5502 231.4978,-169.155 204.0048,-159.6 177.754,-150.4767 149.2341,-138.1044 126.5265,-127.6296"/>
<polygon fill="#000000" stroke="#000000" points="127.7167,-124.3229 117.1741,-123.2716 124.76,-130.6678 127.7167,-124.3229"/>
<text text-anchor="middle" x="224.6654" y="-147" font-family="Times,serif" font-size="14.00" fill="#000000">inst_de</text>
</g>
<!-- soprano -->
<g id="node18" class="node">
<title>soprano</title>
<ellipse fill="none" stroke="#000000" cx="226.4452" cy="-106.8" rx="41.7153" ry="18"/>
<text text-anchor="middle" x="226.4452" y="-102.6" font-family="Times,serif" font-size="14.00" fill="#000000">soprano</text>
</g>
<!-- joanSutherland&#45;&gt;soprano -->
<g id="edge19" class="edge">
<title>joanSutherland-&gt;soprano</title>
<path fill="none" stroke="#000000" d="M299.6002,-180.9811C287.2758,-175.462 274.2923,-168.3513 263.7888,-159.6 254.9641,-152.2473 247.2287,-142.3391 241.1213,-133.092"/>
<polygon fill="#000000" stroke="#000000" points="244.0448,-131.1656 235.7823,-124.5338 238.1058,-134.8707 244.0448,-131.1656"/>
<text text-anchor="middle" x="280.7734" y="-147" font-family="Times,serif" font-size="14.00" fill="#000000">oficio</text>
</g>
<!-- 1926 -->
<g id="node19" class="node">
<title>1926</title>
<ellipse fill="none" stroke="#000000" cx="316.4452" cy="-106.8" rx="30.2015" ry="18"/>
<text text-anchor="middle" x="316.4452" y="-102.6" font-family="Times,serif" font-size="14.00" fill="#000000">1926</text>
</g>
<!-- joanSutherland&#45;&gt;1926 -->
<g id="edge20" class="edge">
<title>joanSutherland-&gt;1926</title>
<path fill="none" stroke="#000000" d="M317.1887,-178.612C311.4303,-173.2536 306.0535,-166.8214 302.9178,-159.6 299.3421,-151.365 300.2747,-141.9819 302.8652,-133.4328"/>
<polygon fill="#000000" stroke="#000000" points="306.2079,-134.4895 306.4969,-123.8986 299.6664,-131.9977 306.2079,-134.4895"/>
<text text-anchor="middle" x="345.2089" y="-147" font-family="Times,serif" font-size="14.00" fill="#000000">anoNacimiento</text>
</g>
<!-- 2010 -->
<g id="node20" class="node">
<title>2010</title>
<ellipse fill="none" stroke="#000000" cx="410.4452" cy="-106.8" rx="30.2015" ry="18"/>
<text text-anchor="middle" x="410.4452" y="-102.6" font-family="Times,serif" font-size="14.00" fill="#000000">2010</text>
</g>
<!-- joanSutherland&#45;&gt;2010 -->
<g id="edge21" class="edge">
<title>joanSutherland-&gt;2010</title>
<path fill="none" stroke="#000000" d="M368.4746,-178.6977C375.6508,-173.2615 382.9285,-166.7677 388.4452,-159.6 394.2543,-152.0527 398.7985,-142.7498 402.2103,-134.066"/>
<polygon fill="#000000" stroke="#000000" points="405.5053,-135.2459 405.5882,-124.6514 398.9166,-132.8819 405.5053,-135.2459"/>
<text text-anchor="middle" x="446.0448" y="-147" font-family="Times,serif" font-size="14.00" fill="#000000">anoFallecimiento</text>
</g>
</g>
</svg>